<svg version="1.1" id="Layer_1" xmlns="http://www.w3.org/2000/svg" xmlns:xlink="http://www.w3.org/1999/xlink" x="0px" y="0px" viewBox="0 0 44.9 45.1" style="enable-background:new 0 0 44.9 45.1;" xml:space="preserve">
 <style type="text/css">
  .st0{fill:#2167AE;}
 </style>
 <g>
  <path id="logoSymbol" class="st0" d="M22.5,0C10,0,0,10,0,22.5c0,5.1,1.6,9.9,4.6,13.6l18.7-24.6h-1.9h-1.9c-2.1,0-4.2,0.1-5.5,0.4
		c-0.9,0.1-1.6,0.4-2.2,0.9c-0.7,0.4-1.6,1.6-2.2,2.7c0,0.1-0.1,0.3-0.3,0.6L7.8,16l1.8-7h23.4L14.4,33.7c1.2-0.1,1.6-0.1,2.7-0.1
		c0.7,0,1.9,0,3.4,0.1l3.3,0.1c1.2,0,2.2,0.1,3,0.1c1.6,0,2.8-0.1,3.9-0.4c0.9-0.3,1.6-0.6,2.4-1.2c1.3-0.9,2.5-2.4,3.3-3.7
		c0-0.1,0.1-0.3,0.3-0.6l1,0.3c-0.3,1.2-0.4,1.6-1,2.8c-1,2.2-2.1,3.7-3.7,4.9c-1.6,1.2-3.3,1.8-5.4,1.8h-0.3
		c-1.5,0-2.7-0.1-6.4-0.7c-3.7-0.6-5.7-0.7-7.6-0.7c-1.2,0-2.4,0.1-3.6,0.3c-1.6,0.3-2.2,0.4-3.7,1c4,4.5,10,7.3,16.6,7.3
		c12.4,0,22.5-10,22.5-22.5C44.9,10,34.9,0,22.5,0">
  </path>
 </g>
</svg>